<svg width="54" height="52" viewBox="0 0 54 52" fill="none" xmlns="http://www.w3.org/2000/svg">
<path d="M50.588 24.1793L26.9978 37.2067L3.40751 24.1793C2.89582 23.8968 2.28314 23.8129 1.70424 23.9461C1.12534 24.0793 0.627645 24.4186 0.320637 24.8895C0.0136285 25.3604 -0.0775412 25.9242 0.0671838 26.4569C0.211909 26.9897 0.580674 27.4477 1.09235 27.7302L25.8413 41.3952C26.1912 41.5887 26.5918 41.6909 27 41.6909C27.4082 41.6909 27.8088 41.5887 28.1587 41.3952L52.9076 27.7302C53.4193 27.4477 53.7881 26.9897 53.9328 26.4569C54.0775 25.9242 53.9864 25.3604 53.6794 24.8895C53.3724 24.4186 52.8747 24.0793 52.2958 23.9461C51.7169 23.8129 51.1042 23.8968 50.5925 24.1793H50.588Z" fill="black"/>
<path d="M50.588 33.5668L26.9977 47.2776L3.4075 33.5668C3.15414 33.4196 2.87332 33.3221 2.58107 33.28C2.28883 33.2378 1.99088 33.2519 1.70424 33.3213C1.41759 33.3907 1.14787 33.5141 0.910474 33.6845C0.673074 33.8549 0.472645 34.0689 0.32063 34.3144C0.168615 34.5598 0.0679911 34.8318 0.0245036 35.1149C-0.0189839 35.398 -0.00448344 35.6866 0.0671771 35.9643C0.211902 36.525 0.580667 37.0071 1.09235 37.3045L25.8413 51.6888C26.1912 51.8924 26.5918 52 27 52C27.4082 52 27.8088 51.8924 28.1587 51.6888L52.9076 37.3045C53.4193 37.0071 53.7881 36.525 53.9328 35.9643C54.0775 35.4035 53.9864 34.81 53.6794 34.3144C53.3724 33.8187 52.8747 33.4615 52.2958 33.3213C51.7169 33.1811 51.1042 33.2694 50.5925 33.5668H50.588Z" fill="#8B3A98"/>
<path d="M1.09057 18.2637L23.5552 31.388C24.5953 31.9972 25.7862 32.3191 27 32.3191C28.2138 32.3191 29.4047 31.9972 30.4448 31.388L52.9094 18.2637C53.2421 18.0689 53.5174 17.7937 53.7085 17.4647C53.8996 17.1357 54 16.7642 54 16.3863C54 16.0083 53.8996 15.6368 53.7085 15.3078C53.5174 14.9789 53.2421 14.7036 52.9094 14.5089L30.4448 1.38457C29.4045 0.776061 28.2137 0.45459 27 0.45459C25.7863 0.45459 24.5955 0.776061 23.5552 1.38457L1.09057 14.5089C0.75789 14.7036 0.482625 14.9789 0.291528 15.3078C0.10043 15.6368 0 16.0083 0 16.3863C0 16.7642 0.10043 17.1357 0.291528 17.4647C0.482625 17.7937 0.75789 18.0689 1.09057 18.2637Z" fill="#8B3A98"/>
</svg>
